/* XPM */
static char *a8bc014a933c4738fe1c986cf38f5aa9[] = {
/* columns rows colors chars-per-pixel */
"64 64 18 1 ",
"  c #0099BF",
". c #109FC3",
"X c #20A6C7",
"o c #30ACCB",
"O c #40B3CF",
"+ c #50B9D3",
"@ c #60BFD7",
"# c #70C6DB",
"$ c #80CCDF",
"% c #90D3E3",
"& c #A0D9E7",
"* c #B0DFEB",
"= c #C0E6EF",
"- c #D0ECF3",
"; c #E0F3F7",
": c #F0F9FB",
"> c gray100",
", c None",
/* pixels */
",,,,,,,,,,,,,,,,,,,,,,,,,              ,,,,,,,,,,,,,,,,,,,,,,,,,",
",,,,,,,,,,,,,,,,,,,,,,                    ,,,,,,,,,,,,,,,,,,,,,,",
",,,,,,,,,,,,,,,,,,,                          ,,,,,,,,,,,,,,,,,,,",
",,,,,,,,,,,,,,,,,                              ,,,,,,,,,,,,,,,,,",
",,,,,,,,,,,,,,,                                  ,,,,,,,,,,,,,,,",
",,,,,,,,,,,,,,                                    ,,,,,,,,,,,,,,",
",,,,,,,,,,,,                                        ,,,,,,,,,,,,",
",,,,,,,,,,,                                          ,,,,,,,,,,,",
",,,,,,,,,,                                            ,,,,,,,,,,",
",,,,,,,,,                                              ,,,,,,,,,",
",,,,,,,,                                                ,,,,,,,,",
",,,,,,,                                                  ,,,,,,,",
",,,,,,                                                    ,,,,,,",
",,,,,,                                                    ,,,,,,",
",,,,,                                                      ,,,,,",
",,,,         O$$$$$.                        o$$$$$X         ,,,,",
",,,,         $>>>>>*                       .->>>>>O         ,,,,",
",,,          $>>>>>>#                      %>>>>>>O          ,,,",
",,,          $>>>>>>:X                    O>>>>>>>O          ,,,",
",,           $>>>>>>>=                   .:>>>>>>>O           ,,",
",,           $>>>>>>>>$                  *>>>>>>>>O           ,,",
",,      oOOOO&>>>>>>>>>o                @>>>>>>>>>#OOOOX      ,,",
",       =>>>>>>>>>>>>>>-               X:>>>>>>>>>>>>>>$       ,",
",       =>>>>>>>>>>>>>>>%              ->>>>>>>>>>>>>>>$       ,",
",       =>>>>>>>>>>>>>>>>O            $>>>>>>>>>>>>>>>>$       ,",
"        =>>>>>>>>>>>>>>>>;.          o>>>>>>>>>>>>>>>>>$        ",
"        =>>>>>>>>>>>>>>>>>&         .;>>>>>>>>>>>>>>>>>$        ",
"        oOOOO&>>>>>>>>>>>>>+        &>>>>>>>>>>>>>#OOOOX        ",
"             $>>>>>>>>>>>>>:.      +>>>>>>>>>>>>>>O             ",
"             $>>>>>>>>>>>>>>*     .:>>>>>>>>>>>>>>O             ",
"             $>>>>>>>>>>>>>>>#    =>>>>>>>>>>>>>>>O             ",
"        %====;>>>>>>>>>>>>>>>:X  #>>>>>>>>>>>>>>>>-====@        ",
"        =>>>>>>>>>>>>:>>>>>>>>= o:>>>>>>>>->>>>>>>>>>>>$        ",
"        =>>>>>>>>>>>>@:>>>>>>>>$->>>>>>>>;+>>>>>>>>>>>>$        ",
"        =>>>>>>>>>>>>O+>>>>>>>>>>>>>>>>>>oO>>>>>>>>>>>>$        ",
"        =>>>>>>>>>>>>O *>>>>>>>>>>>>>>>>$ O>>>>>>>>>>>>$        ",
"        %====;>>>>>>>O .;>>>>>>>>>>>>>>-  O>>>>>>>-====@        ",
"             $>>>>>>>O  O>>>>>>>>>>>>>:X  O>>>>>>>O             ",
"             $>>>>>>>O   %>>>>>>>>>>>>#   O>>>>>>>O             ",
",            $>>>>>>>O    ->>>>>>>>>>*    O>>>>>>>O            ,",
",            $>>>>>>>O    o>>>>>>>>>:.    O>>>>>>>O            ,",
",            $>>>>>>>O     #>>>>>>>>+     O>>>>>>>O            ,",
",,           $>>>>>>>O      =>>>>>>%      O>>>>>>>O           ,,",
",,           $>>>>>>>O      X:>>>>;.      O>>>>>>>O           ,,",
",,           $>>>>>>>O       +>>>>o       O>>>>>>>O           ,,",
",,,          $>>>>>>>O        *>>$        O>>>>>>>O          ,,,",
",,,          $>>>>>>>O        .:-         O>>>>>>>O          ,,,",
",,,,         $>>>>>>>O         oX         O>>>>>>>O         ,,,,",
",,,,         XOOOOOOO.                    .OOOOOOO.         ,,,,",
",,,,,                                                      ,,,,,",
",,,,,,                                                    ,,,,,,",
",,,,,,                                                    ,,,,,,",
",,,,,,,                                                  ,,,,,,,",
",,,,,,,,                                                ,,,,,,,,",
",,,,,,,,,                                              ,,,,,,,,,",
",,,,,,,,,,                                            ,,,,,,,,,,",
",,,,,,,,,,,                                          ,,,,,,,,,,,",
",,,,,,,,,,,,                                        ,,,,,,,,,,,,",
",,,,,,,,,,,,,,                                    ,,,,,,,,,,,,,,",
",,,,,,,,,,,,,,,                                  ,,,,,,,,,,,,,,,",
",,,,,,,,,,,,,,,,,                              ,,,,,,,,,,,,,,,,,",
",,,,,,,,,,,,,,,,,,,                          ,,,,,,,,,,,,,,,,,,,",
",,,,,,,,,,,,,,,,,,,,,,                    ,,,,,,,,,,,,,,,,,,,,,,",
",,,,,,,,,,,,,,,,,,,,,,,,,              ,,,,,,,,,,,,,,,,,,,,,,,,,"
};
