/* XPM */
static char *_7dbaf62856043fa923d498913f911a5[] = {
/* columns rows colors chars-per-pixel */
"128 128 18 1 ",
"  c #0099BF",
". c #109FC3",
"X c #20A6C7",
"o c #30ACCB",
"O c #40B3CF",
"+ c #50B9D3",
"@ c #60BFD7",
"# c #70C6DB",
"$ c #80CCDF",
"% c #90D3E3",
"& c #A0D9E7",
"* c #B0DFEB",
"= c #C0E6EF",
"- c #D0ECF3",
"; c #E0F3F7",
": c #F0F9FB",
"> c gray100",
", c None",
/* pixels */
",,,,,,,,,,,,,,,,,,,,,,,,,,,,,,,,,,,,,,,,,,,,,,,,,,,,,,                    ,,,,,,,,,,,,,,,,,,,,,,,,,,,,,,,,,,,,,,,,,,,,,,,,,,,,,,",
",,,,,,,,,,,,,,,,,,,,,,,,,,,,,,,,,,,,,,,,,,,,,,,,,                              ,,,,,,,,,,,,,,,,,,,,,,,,,,,,,,,,,,,,,,,,,,,,,,,,,",
",,,,,,,,,,,,,,,,,,,,,,,,,,,,,,,,,,,,,,,,,,,,,,                                    ,,,,,,,,,,,,,,,,,,,,,,,,,,,,,,,,,,,,,,,,,,,,,,",
",,,,,,,,,,,,,,,,,,,,,,,,,,,,,,,,,,,,,,,,,,,                                          ,,,,,,,,,,,,,,,,,,,,,,,,,,,,,,,,,,,,,,,,,,,",
",,,,,,,,,,,,,,,,,,,,,,,,,,,,,,,,,,,,,,,,                                                ,,,,,,,,,,,,,,,,,,,,,,,,,,,,,,,,,,,,,,,,",
",,,,,,,,,,,,,,,,,,,,,,,,,,,,,,,,,,,,,,                                                    ,,,,,,,,,,,,,,,,,,,,,,,,,,,,,,,,,,,,,,",
",,,,,,,,,,,,,,,,,,,,,,,,,,,,,,,,,,,                                                          ,,,,,,,,,,,,,,,,,,,,,,,,,,,,,,,,,,,",
",,,,,,,,,,,,,,,,,,,,,,,,,,,,,,,,,                                                              ,,,,,,,,,,,,,,,,,,,,,,,,,,,,,,,,,",
",,,,,,,,,,,,,,,,,,,,,,,,,,,,,,,,                                                                ,,,,,,,,,,,,,,,,,,,,,,,,,,,,,,,,",
",,,,,,,,,,,,,,,,,,,,,,,,,,,,,,                                                                    ,,,,,,,,,,,,,,,,,,,,,,,,,,,,,,",
",,,,,,,,,,,,,,,,,,,,,,,,,,,,                                                                        ,,,,,,,,,,,,,,,,,,,,,,,,,,,,",
",,,,,,,,,,,,,,,,,,,,,,,,,,,                                                                          ,,,,,,,,,,,,,,,,,,,,,,,,,,,",
",,,,,,,,,,,,,,,,,,,,,,,,,,                                                                            ,,,,,,,,,,,,,,,,,,,,,,,,,,",
",,,,,,,,,,,,,,,,,,,,,,,,                                                                                ,,,,,,,,,,,,,,,,,,,,,,,,",
",,,,,,,,,,,,,,,,,,,,,,,                                                                                  ,,,,,,,,,,,,,,,,,,,,,,,",
",,,,,,,,,,,,,,,,,,,,,,                                                                                    ,,,,,,,,,,,,,,,,,,,,,,",
",,,,,,,,,,,,,,,,,,,,,                                                                                      ,,,,,,,,,,,,,,,,,,,,,",
",,,,,,,,,,,,,,,,,,,,                                                                                        ,,,,,,,,,,,,,,,,,,,,",
",,,,,,,,,,,,,,,,,,,                                                                                          ,,,,,,,,,,,,,,,,,,,",
",,,,,,,,,,,,,,,,,,                                                                                            ,,,,,,,,,,,,,,,,,,",
",,,,,,,,,,,,,,,,,                                                                                              ,,,,,,,,,,,,,,,,,",
",,,,,,,,,,,,,,,,                                                                                                ,,,,,,,,,,,,,,,,",
",,,,,,,,,,,,,,,                                                                                                  ,,,,,,,,,,,,,,,",
",,,,,,,,,,,,,,                                                                                                    ,,,,,,,,,,,,,,",
",,,,,,,,,,,,,                                                                                                      ,,,,,,,,,,,,,",
",,,,,,,,,,,,,                                                                                                      ,,,,,,,,,,,,,",
",,,,,,,,,,,,                                                                                                        ,,,,,,,,,,,,",
",,,,,,,,,,,                                                                                                          ,,,,,,,,,,,",
",,,,,,,,,,                                                                                                            ,,,,,,,,,,",
",,,,,,,,,,                                                                                                            ,,,,,,,,,,",
",,,,,,,,,                                                                                                              ,,,,,,,,,",
",,,,,,,,,                  =>>>>>>>>>>o                                                  #>>>>>>>>>>$                  ,,,,,,,,,",
",,,,,,,,                   =>>>>>>>>>>-                                                 o>>>>>>>>>>>$                   ,,,,,,,,",
",,,,,,,                    =>>>>>>>>>>>$                                               .->>>>>>>>>>>$                    ,,,,,,,",
",,,,,,,                    =>>>>>>>>>>>>O                                              %>>>>>>>>>>>>$                    ,,,,,,,",
",,,,,,                     =>>>>>>>>>>>>;.                                            O>>>>>>>>>>>>>$                     ,,,,,,",
",,,,,,                     =>>>>>>>>>>>>>%                                           .:>>>>>>>>>>>>>$                     ,,,,,,",
",,,,,,                     =>>>>>>>>>>>>>>+                                          *>>>>>>>>>>>>>>$                     ,,,,,,",
",,,,,                      =>>>>>>>>>>>>>>:.                                        #>>>>>>>>>>>>>>>$                      ,,,,,",
",,,,,                      =>>>>>>>>>>>>>>>*                                       X:>>>>>>>>>>>>>>>$                      ,,,,,",
",,,,                       =>>>>>>>>>>>>>>>>@                                      ->>>>>>>>>>>>>>>>$                       ,,,,",
",,,,                       =>>>>>>>>>>>>>>>>:X                                    $>>>>>>>>>>>>>>>>>$                       ,,,,",
",,,,                       =>>>>>>>>>>>>>>>>>=                                   o>>>>>>>>>>>>>>>>>>$                       ,,,,",
",,,             .OOOOOOOOOO->>>>>>>>>>>>>>>>>>$                                 .;>>>>>>>>>>>>>>>>>>&OOOOOOOOOo              ,,,",
",,,             O>>>>>>>>>>>>>>>>>>>>>>>>>>>>>>o                                &>>>>>>>>>>>>>>>>>>>>>>>>>>>>>=              ,,,",
",,,             O>>>>>>>>>>>>>>>>>>>>>>>>>>>>>>-                               +>>>>>>>>>>>>>>>>>>>>>>>>>>>>>>=              ,,,",
",,              O>>>>>>>>>>>>>>>>>>>>>>>>>>>>>>>%                             .:>>>>>>>>>>>>>>>>>>>>>>>>>>>>>>=               ,,",
",,              O>>>>>>>>>>>>>>>>>>>>>>>>>>>>>>>>O                            =>>>>>>>>>>>>>>>>>>>>>>>>>>>>>>>=               ,,",
",,              O>>>>>>>>>>>>>>>>>>>>>>>>>>>>>>>>;.                          #>>>>>>>>>>>>>>>>>>>>>>>>>>>>>>>>=               ,,",
",               O>>>>>>>>>>>>>>>>>>>>>>>>>>>>>>>>>&                         o:>>>>>>>>>>>>>>>>>>>>>>>>>>>>>>>>=                ,",
",               O>>>>>>>>>>>>>>>>>>>>>>>>>>>>>>>>>>+                        ->>>>>>>>>>>>>>>>>>>>>>>>>>>>>>>>>=                ,",
",               O>>>>>>>>>>>>>>>>>>>>>>>>>>>>>>>>>>:.                      %>>>>>>>>>>>>>>>>>>>>>>>>>>>>>>>>>>=                ,",
",               O>>>>>>>>>>>>>>>>>>>>>>>>>>>>>>>>>>>*                     O>>>>>>>>>>>>>>>>>>>>>>>>>>>>>>>>>>>=                ,",
",               O>>>>>>>>>>>>>>>>>>>>>>>>>>>>>>>>>>>>#                   .;>>>>>>>>>>>>>>>>>>>>>>>>>>>>>>>>>>>=                ,",
"                X$$$$$$$$$$;>>>>>>>>>>>>>>>>>>>>>>>>>:X                  *>>>>>>>>>>>>>>>>>>>>>>>>>>=$$$$$$$$$@                 ",
"                           =>>>>>>>>>>>>>>>>>>>>>>>>>>=                 @>>>>>>>>>>>>>>>>>>>>>>>>>>>$                           ",
"                           =>>>>>>>>>>>>>>>>>>>>>>>>>>>$               X:>>>>>>>>>>>>>>>>>>>>>>>>>>>$                           ",
"                           =>>>>>>>>>>>>>>>>>>>>>>>>>>>>o              =>>>>>>>>>>>>>>>>>>>>>>>>>>>>$                           ",
"                           =>>>>>>>>>>>>>>>>>>>>>>>>>>>>-             $>>>>>>>>>>>>>>>>>>>>>>>>>>>>>$                           ",
"                           =>>>>>>>>>>>>>>>>>>>>>>>>>>>>>%           o>>>>>>>>>>>>>>>>>>>>>>>>>>>>>>$                           ",
"                           =>>>>>>>>>>>>>>>>>>>>>>>>>>>>>>O         .->>>>>>>>>>>>>>>>>>>>>>>>>>>>>>$                           ",
"                           =>>>>>>>>>>>>>>>>>>>>>>>>>>>>>>;.        %>>>>>>>>>>>>>>>>>>>>>>>>>>>>>>>$                           ",
"                .OOOOOOOOOO->>>>>>>>>>>>>>>>>>>>>>>>>>>>>>>&       +>>>>>>>>>>>>>>>>>>>>>>>>>>>>>>>>&OOOOOOOOOo                 ",
"                O>>>>>>>>>>>>>>>>>>>>>>>>>>>>>>>>>>>>>>>>>>>+     .:>>>>>>>>>>>>>>>>>>>>>>>>>>>>>>>>>>>>>>>>>>=                 ",
"                O>>>>>>>>>>>>>>>>>>>>>>>>>;>>>>>>>>>>>>>>>>>:.    *>>>>>>>>>>>>>>>>>>->>>>>>>>>>>>>>>>>>>>>>>>=                 ",
"                O>>>>>>>>>>>>>>>>>>>>>>>>>+;>>>>>>>>>>>>>>>>>*   #>>>>>>>>>>>>>>>>>>&$>>>>>>>>>>>>>>>>>>>>>>>>=                 ",
"                O>>>>>>>>>>>>>>>>>>>>>>>>>OO>>>>>>>>>>>>>>>>>># o:>>>>>>>>>>>>>>>>>;.$>>>>>>>>>>>>>>>>>>>>>>>>=                 ",
"                O>>>>>>>>>>>>>>>>>>>>>>>>>O %>>>>>>>>>>>>>>>>>:X->>>>>>>>>>>>>>>>>>O $>>>>>>>>>>>>>>>>>>>>>>>>=                 ",
"                O>>>>>>>>>>>>>>>>>>>>>>>>>O  ->>>>>>>>>>>>>>>>>:>>>>>>>>>>>>>>>>>>$  $>>>>>>>>>>>>>>>>>>>>>>>>=                 ",
"                O>>>>>>>>>>>>>>>>>>>>>>>>>O  o>>>>>>>>>>>>>>>>>>>>>>>>>>>>>>>>>>>-   $>>>>>>>>>>>>>>>>>>>>>>>>=                 ",
"                O>>>>>>>>>>>>>>>>>>>>>>>>>O   #>>>>>>>>>>>>>>>>>>>>>>>>>>>>>>>>>>o   $>>>>>>>>>>>>>>>>>>>>>>>>=                 ",
"                O>>>>>>>>>>>>>>>>>>>>>>>>>O    =>>>>>>>>>>>>>>>>>>>>>>>>>>>>>>>>#    $>>>>>>>>>>>>>>>>>>>>>>>>=                 ",
"                O>>>>>>>>>>>>>>>>>>>>>>>>>O    X:>>>>>>>>>>>>>>>>>>>>>>>>>>>>>>=     $>>>>>>>>>>>>>>>>>>>>>>>>=                 ",
"                .OOOOOOOOOO->>>>>>>>>>>>>>O     +>>>>>>>>>>>>>>>>>>>>>>>>>>>>>:X     $>>>>>>>>>>>>>>&OOOOOOOOOo                 ",
",                          =>>>>>>>>>>>>>>O      *>>>>>>>>>>>>>>>>>>>>>>>>>>>>+      $>>>>>>>>>>>>>>$                          ,",
",                          =>>>>>>>>>>>>>>O      .;>>>>>>>>>>>>>>>>>>>>>>>>>>*       $>>>>>>>>>>>>>>$                          ,",
",                          =>>>>>>>>>>>>>>O       O>>>>>>>>>>>>>>>>>>>>>>>>>;.       $>>>>>>>>>>>>>>$                          ,",
",                          =>>>>>>>>>>>>>>O        %>>>>>>>>>>>>>>>>>>>>>>>>O        $>>>>>>>>>>>>>>$                          ,",
",                          =>>>>>>>>>>>>>>O         ->>>>>>>>>>>>>>>>>>>>>>%         $>>>>>>>>>>>>>>$                          ,",
",,                         =>>>>>>>>>>>>>>O         o>>>>>>>>>>>>>>>>>>>>>-          $>>>>>>>>>>>>>>$                         ,,",
",,                         =>>>>>>>>>>>>>>O          #>>>>>>>>>>>>>>>>>>>>o          $>>>>>>>>>>>>>>$                         ,,",
",,                         =>>>>>>>>>>>>>>O           =>>>>>>>>>>>>>>>>>>#           $>>>>>>>>>>>>>>$                         ,,",
",,,                        =>>>>>>>>>>>>>>O           X:>>>>>>>>>>>>>>>>=            $>>>>>>>>>>>>>>$                        ,,,",
",,,                        =>>>>>>>>>>>>>>O            +>>>>>>>>>>>>>>>:X            $>>>>>>>>>>>>>>$                        ,,,",
",,,                        =>>>>>>>>>>>>>>O             *>>>>>>>>>>>>>>+             $>>>>>>>>>>>>>>$                        ,,,",
",,,,                       =>>>>>>>>>>>>>>O             .;>>>>>>>>>>>>*              $>>>>>>>>>>>>>>$                       ,,,,",
",,,,                       =>>>>>>>>>>>>>>O              O>>>>>>>>>>>;.              $>>>>>>>>>>>>>>$                       ,,,,",
",,,,                       =>>>>>>>>>>>>>>O               %>>>>>>>>>>O               $>>>>>>>>>>>>>>$                       ,,,,",
",,,,,                      =>>>>>>>>>>>>>>O                ->>>>>>>>%                $>>>>>>>>>>>>>>$                      ,,,,,",
",,,,,                      =>>>>>>>>>>>>>>O                o>>>>>>>-                 $>>>>>>>>>>>>>>$                      ,,,,,",
",,,,,,                     =>>>>>>>>>>>>>>O                 #>>>>>>o                 $>>>>>>>>>>>>>>$                     ,,,,,,",
",,,,,,                     =>>>>>>>>>>>>>>O                  =>>>>#                  $>>>>>>>>>>>>>>$                     ,,,,,,",
",,,,,,                     =>>>>>>>>>>>>>>O                  X:>>=                   $>>>>>>>>>>>>>>$                     ,,,,,,",
",,,,,,,                    =>>>>>>>>>>>>>>O                   @>:X                   $>>>>>>>>>>>>>>$                    ,,,,,,,",
",,,,,,,                    =>>>>>>>>>>>>>>O                    *+                    $>>>>>>>>>>>>>>$                    ,,,,,,,",
",,,,,,,,                   =>>>>>>>>>>>>>>O                                          $>>>>>>>>>>>>>>$                   ,,,,,,,,",
",,,,,,,,,                  @$$$$$$$$$$$$$$X                                          O$$$$$$$$$$$$$$O                  ,,,,,,,,,",
",,,,,,,,,                                                                                                              ,,,,,,,,,",
",,,,,,,,,,                                                                                                            ,,,,,,,,,,",
",,,,,,,,,,                                                                                                            ,,,,,,,,,,",
",,,,,,,,,,,                                                                                                          ,,,,,,,,,,,",
",,,,,,,,,,,,                                                                                                        ,,,,,,,,,,,,",
",,,,,,,,,,,,,                                                                                                      ,,,,,,,,,,,,,",
",,,,,,,,,,,,,                                                                                                      ,,,,,,,,,,,,,",
",,,,,,,,,,,,,,                                                                                                    ,,,,,,,,,,,,,,",
",,,,,,,,,,,,,,,                                                                                                  ,,,,,,,,,,,,,,,",
",,,,,,,,,,,,,,,,                                                                                                ,,,,,,,,,,,,,,,,",
",,,,,,,,,,,,,,,,,                                                                                              ,,,,,,,,,,,,,,,,,",
",,,,,,,,,,,,,,,,,,                                                                                            ,,,,,,,,,,,,,,,,,,",
",,,,,,,,,,,,,,,,,,,                                                                                          ,,,,,,,,,,,,,,,,,,,",
",,,,,,,,,,,,,,,,,,,,                                                                                        ,,,,,,,,,,,,,,,,,,,,",
",,,,,,,,,,,,,,,,,,,,,                                                                                      ,,,,,,,,,,,,,,,,,,,,,",
",,,,,,,,,,,,,,,,,,,,,,                                                                                    ,,,,,,,,,,,,,,,,,,,,,,",
",,,,,,,,,,,,,,,,,,,,,,,                                                                                  ,,,,,,,,,,,,,,,,,,,,,,,",
",,,,,,,,,,,,,,,,,,,,,,,,                                                                                ,,,,,,,,,,,,,,,,,,,,,,,,",
",,,,,,,,,,,,,,,,,,,,,,,,,,                                                                            ,,,,,,,,,,,,,,,,,,,,,,,,,,",
",,,,,,,,,,,,,,,,,,,,,,,,,,,                                                                          ,,,,,,,,,,,,,,,,,,,,,,,,,,,",
",,,,,,,,,,,,,,,,,,,,,,,,,,,,                                                                        ,,,,,,,,,,,,,,,,,,,,,,,,,,,,",
",,,,,,,,,,,,,,,,,,,,,,,,,,,,,,                                                                    ,,,,,,,,,,,,,,,,,,,,,,,,,,,,,,",
",,,,,,,,,,,,,,,,,,,,,,,,,,,,,,,,                                                                ,,,,,,,,,,,,,,,,,,,,,,,,,,,,,,,,",
",,,,,,,,,,,,,,,,,,,,,,,,,,,,,,,,,                                                              ,,,,,,,,,,,,,,,,,,,,,,,,,,,,,,,,,",
",,,,,,,,,,,,,,,,,,,,,,,,,,,,,,,,,,,                                                          ,,,,,,,,,,,,,,,,,,,,,,,,,,,,,,,,,,,",
",,,,,,,,,,,,,,,,,,,,,,,,,,,,,,,,,,,,,,                                                    ,,,,,,,,,,,,,,,,,,,,,,,,,,,,,,,,,,,,,,",
",,,,,,,,,,,,,,,,,,,,,,,,,,,,,,,,,,,,,,,,                                                ,,,,,,,,,,,,,,,,,,,,,,,,,,,,,,,,,,,,,,,,",
",,,,,,,,,,,,,,,,,,,,,,,,,,,,,,,,,,,,,,,,,,,                                          ,,,,,,,,,,,,,,,,,,,,,,,,,,,,,,,,,,,,,,,,,,,",
",,,,,,,,,,,,,,,,,,,,,,,,,,,,,,,,,,,,,,,,,,,,,,                                    ,,,,,,,,,,,,,,,,,,,,,,,,,,,,,,,,,,,,,,,,,,,,,,",
",,,,,,,,,,,,,,,,,,,,,,,,,,,,,,,,,,,,,,,,,,,,,,,,,                              ,,,,,,,,,,,,,,,,,,,,,,,,,,,,,,,,,,,,,,,,,,,,,,,,,",
",,,,,,,,,,,,,,,,,,,,,,,,,,,,,,,,,,,,,,,,,,,,,,,,,,,,,,                    ,,,,,,,,,,,,,,,,,,,,,,,,,,,,,,,,,,,,,,,,,,,,,,,,,,,,,,"
};
