/* XPM */
static char *f38800d8903147ddfbe9e07864c0cdd7[] = {
/* columns rows colors chars-per-pixel */
"16 16 14 1 ",
"  c #0099BF",
". c #109FC3",
"X c #20A6C7",
"o c #30ACCB",
"O c #40B3CF",
"+ c #50B9D3",
"@ c #70C6DB",
"# c #80CCDF",
"$ c #90D3E3",
"% c #C0E6EF",
"& c #D0ECF3",
"* c #F0F9FB",
"= c gray100",
"- c None",
/* pixels */
"-----      -----",
"---          ---",
"--            --",
"-  oO      Oo  -",
"-  %=+    @=%  -",
"  %*=*.  X*=*%  ",
"  ====%  &====  ",
"  O&===@#===&O  ",
"  ===*=*==*===  ",
"  O&=$&==&#=&O  ",
"   %=#o==o#=%   ",
"-  %=# #@ #=%  -",
"-  oOX    XOo  -",
"--            --",
"---          ---",
"-----      -----"
};
